<svg width="23" height="23" viewBox="0 0 23 23" fill="none" xmlns="http://www.w3.org/2000/svg">
<path d="M16.9912 22.8963H5.7947C2.70765 22.8963 0.196426 20.385 0.196426 17.298V6.10144C0.196426 3.0144 2.70765 0.503174 5.7947 0.503174H16.9912C20.0783 0.503174 22.5895 3.0144 22.5895 6.10144V17.298C22.5895 20.385 20.0783 22.8963 16.9912 22.8963ZM5.7947 1.30293C3.14831 1.30293 0.996179 3.45506 0.996179 6.10144V17.298C0.996179 19.9444 3.14831 22.0965 5.7947 22.0965H16.9912C19.6376 22.0965 21.7898 19.9444 21.7898 17.298V6.10144C21.7898 3.45506 19.6376 1.30293 16.9912 1.30293H5.7947Z" fill="#031C6C"/>
<path d="M14.592 19.6972H8.19395C5.54757 19.6972 3.39543 17.5451 3.39543 14.8987V8.50067C3.39543 5.85428 5.54757 3.70215 8.19395 3.70215H14.592C17.2384 3.70215 19.3905 5.85428 19.3905 8.50067V14.8987C19.3905 17.5451 17.2384 19.6972 14.592 19.6972ZM8.19395 5.30165C6.42969 5.30165 4.99494 6.73641 4.99494 8.50067V14.8987C4.99494 16.6629 6.42969 18.0977 8.19395 18.0977H14.592C16.3562 18.0977 17.791 16.6629 17.791 14.8987V8.50067C17.791 6.73641 16.3562 5.30165 14.592 5.30165H8.19395Z" fill="#031C6C"/>
<path d="M15.7916 8.30077C15.2406 8.30077 14.7919 7.85211 14.7919 7.30108C14.7919 6.75005 15.2406 6.30139 15.7916 6.30139C16.3426 6.30139 16.7913 6.75005 16.7913 7.30108C16.7913 7.85211 16.3426 8.30077 15.7916 8.30077Z" fill="#031C6C"/>
<path d="M11.393 15.6983C9.18804 15.6983 7.3942 13.9045 7.3942 11.6996C7.3942 9.49465 9.18804 7.70081 11.393 7.70081C13.5979 7.70081 15.3917 9.49465 15.3917 11.6996C15.3917 13.9045 13.5979 15.6983 11.393 15.6983ZM11.393 9.30031C10.0702 9.30031 8.9937 10.3768 8.9937 11.6996C8.9937 13.0224 10.0702 14.0988 11.393 14.0988C12.7158 14.0988 13.7922 13.0224 13.7922 11.6996C13.7922 10.3768 12.7158 9.30031 11.393 9.30031Z" fill="#031C6C"/>
</svg>
