<svg width="25" height="23" viewBox="0 0 25 23" fill="none" xmlns="http://www.w3.org/2000/svg">
<path d="M4.1643 6.00142H4.12991C2.30407 6.00142 0.978882 4.7906 0.978882 3.12231C0.978882 1.45163 2.33206 0.238403 4.19629 0.238403C6.02932 0.238403 7.33772 1.41884 7.37691 3.10872C7.37691 4.789 6.02612 6.00142 4.1643 6.00142ZM4.19629 1.03816C2.77273 1.03816 1.77863 1.89549 1.77863 3.12231C1.77863 4.34673 2.74554 5.20247 4.12991 5.20247H4.1643C5.58546 5.20167 6.57715 4.34513 6.57715 3.11831C6.54756 1.8579 5.61345 1.03816 4.19629 1.03816Z" fill="#031C6C"/>
<path d="M6.17728 22.0966H2.17852C1.95779 22.0966 1.77864 21.9174 1.77864 21.6967V7.30112C1.77864 7.08039 1.95779 6.90125 2.17852 6.90125H6.17728C6.39801 6.90125 6.57716 7.08039 6.57716 7.30112V21.6967C6.57716 21.9174 6.39801 22.0966 6.17728 22.0966ZM2.57839 21.2968H5.77741V7.701H2.57839V21.2968Z" fill="#031C6C"/>
<path d="M24.5716 22.0966H19.7731C19.5523 22.0966 19.3732 21.9174 19.3732 21.6967V14.099C19.3732 12.7762 18.2967 11.6998 16.9739 11.6998C15.6511 11.6998 14.5747 12.7762 14.5747 14.099V21.6967C14.5747 21.9174 14.3955 22.0966 14.1748 22.0966H9.37629C9.15555 22.0966 8.97641 21.9174 8.97641 21.6967V7.30112C8.97641 7.08039 9.15555 6.90125 9.37629 6.90125H14.1748C14.3955 6.90125 14.5747 7.08039 14.5747 7.30112V9.71158C14.5747 9.93231 14.3955 10.1115 14.1748 10.1115C13.9541 10.1115 13.7749 9.93231 13.7749 9.71158V7.701H9.77616V21.2968H13.7749V14.099C13.7749 12.3348 15.2097 10.9 16.9739 10.9C18.7382 10.9 20.173 12.3348 20.173 14.099V21.2968H24.1717V12.8994C24.1717 10.0331 21.8396 7.701 18.9733 7.701C17.8665 7.701 16.7964 8.0257 15.8775 8.63911C15.6943 8.76067 15.4456 8.71269 15.3232 8.52874C15.2009 8.3448 15.2497 8.09688 15.4344 7.97451C16.4845 7.27233 17.7081 6.90125 18.9733 6.90125C22.2811 6.90125 24.9715 9.59161 24.9715 12.8994V21.6967C24.9715 21.9174 24.7923 22.0966 24.5716 22.0966Z" fill="#031C6C"/>
</svg>
